<svg preserveAspectRatio="none" width="100%" height="100%" overflow="visible" style="display: block;" viewBox="0 0 16 12.7457" fill="none" xmlns="http://www.w3.org/2000/svg">
<g id="Icon">
<path d="M6.03391 9.55931H3.52544C3.33825 9.55931 3.18647 9.71109 3.18647 9.89828V12.4067C3.18647 12.5939 3.33825 12.7457 3.52544 12.7457H6.03391C6.22109 12.7457 6.37288 12.5939 6.37288 12.4067V9.89828C6.37288 9.71112 6.22109 9.55931 6.03391 9.55931Z" fill="var(--fill-0, black)"/>
<path d="M2.84747 6.37287H0.338969C0.151781 6.37287 0 6.52465 0 6.71184V9.22031C0 9.4075 0.151781 9.55928 0.338969 9.55928H2.84744C3.03463 9.55928 3.18641 9.4075 3.18641 9.22031V6.71184C3.18644 6.52465 3.03466 6.37287 2.84747 6.37287Z" fill="var(--fill-0, black)"/>
<path d="M9.22034 6.37287H6.71188C6.52469 6.37287 6.37291 6.52465 6.37291 6.71184V9.22031C6.37291 9.4075 6.52469 9.55928 6.71188 9.55928H9.22034C9.40753 9.55928 9.55931 9.4075 9.55931 9.22031V6.71184C9.55931 6.52465 9.40753 6.37287 9.22034 6.37287Z" fill="var(--fill-0, black)"/>
<path d="M12.4746 3.18644H9.96609C9.77891 3.18644 9.62713 3.33822 9.62713 3.52541V6.03387C9.62713 6.22106 9.77891 6.37284 9.96609 6.37284H12.4746C12.6618 6.37284 12.8135 6.22106 12.8135 6.03387V3.52541C12.8136 3.33822 12.6618 3.18644 12.4746 3.18644Z" fill="var(--fill-0, black)"/>
<path d="M15.661 0H13.1526C12.9654 0 12.8136 0.151781 12.8136 0.338969V2.84744C12.8136 3.03462 12.9654 3.18641 13.1526 3.18641H15.661C15.8482 3.18641 16 3.03462 16 2.84744V0.338969C16 0.151781 15.8482 0 15.661 0Z" fill="var(--fill-0, black)"/>
</g>
</svg>
