<svg preserveAspectRatio="none" width="100%" height="100%" overflow="visible" style="display: block;" viewBox="0 0 20 20" fill="none" xmlns="http://www.w3.org/2000/svg">
<path id="Vector" d="M18.1818 8.18182V7.27273H17.2727V5.45455H18.1818V3.63636H17.2727V2.72727H16.3636V1.81818H14.5455V2.72727H12.7273V1.81818H11.8182V0H8.18182V1.81818H7.27273V2.72727H5.45455V1.81818H3.63636V2.72727H2.72727V3.63636H1.81818V5.45455H2.72727V7.27273H1.81818V8.18182H0V11.8182H1.81818V12.7273H2.72727V14.5455H1.81818V16.3636H2.72727V17.2727H3.63636V18.1818H5.45455V17.2727H7.27273V18.1818H8.18182V20H11.8182V18.1818H12.7273V17.2727H14.5455V18.1818H16.3636V17.2727H17.2727V16.3636H18.1818V14.5455H17.2727V12.7273H18.1818V11.8182H20V8.18182H18.1818ZM8.18182 8.18182V7.27273H11.8182V8.18182H12.7273V11.8182H11.8182V12.7273H8.18182V11.8182H7.27273V8.18182H8.18182Z" fill="var(--fill-0, black)"/>
</svg>
