<svg preserveAspectRatio="none" width="100%" height="100%" overflow="visible" style="display: block;" viewBox="0 0 19.498 23" fill="none" xmlns="http://www.w3.org/2000/svg">
<path id="icon" fill-rule="evenodd" clip-rule="evenodd" d="M16.498 4.00098H14.4981V2L12.4971 2V0H10.501V2H12.4971V4.00098H10L10 4L4 4V6H2L2 8L0 8V16H2L2 8H4L4 6L10 6L10 6.00099H12.4971V8.00197H10.501V9.99805H12.4971V8.00197H12.999H14.4981V6.00099H16.498V4.00098ZM15.498 17H9.49805L9.49805 16.999H7.00097V14.998H8.99706V13.002H7.00097V14.998H6.49903H4.99999V16.999H3V18.999H4.99999V21H7.00097V23H8.99706V21H7.00097V18.999H9.49805L9.49805 19H15.498V17ZM17.498 15H15.498V17H17.498V15ZM17.498 15H19.498V7L17.498 7V15Z" fill="var(--fill-0, black)"/>
</svg>
