<svg preserveAspectRatio="none" width="100%" height="100%" overflow="visible" style="display: block;" viewBox="0 0 22 20" fill="none" xmlns="http://www.w3.org/2000/svg">
<path id="icon" fill-rule="evenodd" clip-rule="evenodd" d="M11.3828 0.0758786C11.2657 0.0273461 11.1375 0.000399113 11.003 4.29153e-06L11 0L10.997 4.29153e-06C10.8625 0.000399113 10.7343 0.0273461 10.6172 0.0758786C10.4993 0.124679 10.3888 0.197017 10.2929 0.292893L7.29289 3.29289C6.90237 3.68342 6.90237 4.31658 7.29289 4.70711C7.68342 5.09763 8.31658 5.09763 8.70711 4.70711L10 3.41421V7C10 7.55228 10.4477 8 11 8C11.5523 8 12 7.55228 12 7V3.41421L13.2929 4.70711C13.6834 5.09763 14.3166 5.09763 14.7071 4.70711C15.0976 4.31658 15.0976 3.68342 14.7071 3.29289L11.7071 0.292893C11.6112 0.197017 11.5007 0.124679 11.3828 0.0758786ZM11 10C9.4087 10 7.88258 10.6321 6.75736 11.7574C5.63214 12.8826 5 14.4087 5 16C5 16.5523 5.44771 17 6 17C6.55229 17 7 16.5523 7 16C7 14.9391 7.42143 13.9217 8.17157 13.1716C8.92172 12.4214 9.93913 12 11 12C12.0609 12 13.0783 12.4214 13.8284 13.1716C14.5786 13.9217 15 14.9391 15 16C15 16.5523 15.4477 17 16 17C16.5523 17 17 16.5523 17 16C17 14.4087 16.3679 12.8826 15.2426 11.7574C14.1174 10.6321 12.5913 10 11 10ZM0 16C0 15.4477 0.447715 15 1 15H3C3.55228 15 4 15.4477 4 16C4 16.5523 3.55228 17 3 17H1C0.447715 17 0 16.5523 0 16ZM19 15C18.4477 15 18 15.4477 18 16C18 16.5523 18.4477 17 19 17H21C21.5523 17 22 16.5523 22 16C22 15.4477 21.5523 15 21 15H19ZM1 19C1 18.4477 1.44771 18 2 18H20C20.5523 18 21 18.4477 21 19C21 19.5523 20.5523 20 20 20H2C1.44771 20 1 19.5523 1 19ZM3.29289 8.29289C3.68342 7.90237 4.31658 7.90237 4.70711 8.29289L5.70711 9.29289C6.09763 9.68342 6.09763 10.3166 5.70711 10.7071C5.31658 11.0976 4.68342 11.0976 4.29289 10.7071L3.29289 9.70711C2.90237 9.31658 2.90237 8.68342 3.29289 8.29289ZM18.7071 9.70711C19.0976 9.31658 19.0976 8.68342 18.7071 8.29289C18.3166 7.90237 17.6834 7.90237 17.2929 8.29289L16.2929 9.29289C15.9024 9.68342 15.9024 10.3166 16.2929 10.7071C16.6834 11.0976 17.3166 11.0976 17.7071 10.7071L18.7071 9.70711Z" fill="var(--fill-0, white)"/>
</svg>
