<svg preserveAspectRatio="none" width="100%" height="100%" overflow="visible" style="display: block;" viewBox="0 0 17 15" fill="none" xmlns="http://www.w3.org/2000/svg">
<path id="icon" fill-rule="evenodd" clip-rule="evenodd" d="M10.5607 0.43934C9.97487 -0.146447 9.02513 -0.146447 8.43934 0.43934C7.85355 1.02513 7.85355 1.97487 8.43934 2.56066L11.8787 6H1.5C0.671573 6 0 6.67157 0 7.5C0 8.32843 0.671573 9 1.5 9H11.8787L8.43934 12.4393C7.85355 13.0251 7.85355 13.9749 8.43934 14.5607C9.02513 15.1464 9.97487 15.1464 10.5607 14.5607L16.5607 8.56066C16.566 8.55528 16.5714 8.54986 16.5767 8.54441C16.8387 8.27434 17 7.90601 17 7.5" fill="var(--fill-0, white)"/>
</svg>
